<svg xmlns="http://www.w3.org/2000/svg" width="512" height="512" viewBox="0 0 512 512" x="0" y="0" style="overflow: visible;" xmlns:xlink="http://www.w3.org/1999/xlink"><defs transform="matrix(1.2038701097379634, 0, 0, 1.2038701097379634, -44.42048074461053, -65.89550562475466)"></defs><g transform="matrix(5.552770614624023, 0, 0, 5.5255656242370605, -1114.6968000408087, -987.4361530666574)"><path d="M18.385,69.157c15.384,0,69.23,0,69.23,0V15.31c0,0,0-15.385-15.384-15.385c-15.386,0-69.231,0-69.231,0v53.847     C3,53.771,3,69.157,18.385,69.157z M10.693,7.618c0,0,38.461,0,53.845,0c15.385,0,15.385,15.385,15.385,15.385v38.462     c0,0-38.461,0-53.846,0c-15.384,0-15.384-15.385-15.384-15.385V7.618z" stroke="none" fill="#666666" transform="matrix(0.9853928089141846, 0, 0, 0.9853928089141846, 201.83531188964844, 178.77708435058594)"></path><path d="M80.467,77C65.082,77,4,77,4,77v7.542C4,84.542,3.542,100,18.927,100S96,100,96,100v-7.766     C96,92.234,95.851,77,80.467,77z M17.945,84h-3.878c0,0-3.309,0-3.309-3h7.185h62.376c0,0,3.307,0,3.307,3H17.945z" stroke="none" fill="#000000" transform="matrix(0.8839290738105774, 0, 0, 0.8839290738105774, 204.04962158203125, 182.970458984375)"></path><path d="M7 0l-1 2-.906.313-2.094-.813-1.5 1.5.813 2.094-.313.906-2 1v2l2 1c.1.3.206.606.406.906l-.906 2.094 1.5 1.5 2.094-.813.906.313 1 2h2l1-2c.3-.1.606-.206.906-.406l2.094.813 1.5-1.5-.813-2.094c.1-.3.306-.606.406-.906l1.906-.906v-2l-2-1c-.1-.3-.206-.606-.406-.906l.906-2.094-1.5-1.5-2.094.813-.906-.313-1-2h-2zm1 5c1.7 0 3 1.3 3 3s-1.3 3-3 3-3-1.3-3-3 1.3-3 3-3z" stroke="none" fill="#28a745" transform="matrix(2.444922924041748, 0, 0, 2.444922924041748, 227.31927490234375, 193.39122009277344)"></path></g></svg>